<svg viewBox="0 0 512 512" xmlns="http://www.w3.org/2000/svg">
  <!-- Background -->
  <rect width="512" height="512" rx="112" fill="#18181b"/>
  <!-- Dumbbell bar -->
  <rect x="176" y="236" width="160" height="40" rx="8" fill="white"/>
  <!-- Left collar -->
  <rect x="136" y="216" width="44" height="80" rx="10" fill="white"/>
  <!-- Right collar -->
  <rect x="332" y="216" width="44" height="80" rx="10" fill="white"/>
  <!-- Left weight plate outer -->
  <rect x="56" y="186" width="84" height="140" rx="18" fill="white"/>
  <!-- Left weight plate inner cutout -->
  <rect x="80" y="214" width="36" height="84" rx="8" fill="#18181b"/>
  <!-- Right weight plate outer -->
  <rect x="372" y="186" width="84" height="140" rx="18" fill="white"/>
  <!-- Right weight plate inner cutout -->
  <rect x="396" y="214" width="36" height="84" rx="8" fill="#18181b"/>
  <!-- Calendar dot top-right (accent) -->
  <circle cx="390" cy="122" r="36" fill="#a1a1aa"/>
  <rect x="374" y="108" width="5" height="28" rx="2.5" fill="#18181b"/>
  <rect x="381" y="115" width="18" height="4" rx="2" fill="#18181b"/>
  <rect x="381" y="122" width="14" height="4" rx="2" fill="#18181b"/>
  <rect x="381" y="129" width="18" height="4" rx="2" fill="#18181b"/>
</svg>
